<svg width="48" height="48" viewBox="0 0 48 48" fill="none" xmlns="http://www.w3.org/2000/svg">
<path d="M3.30676 44.6933L16.041 41.5097H41.5096C42.354 41.5097 43.1637 41.1743 43.7607 40.5773C44.3578 39.9803 44.6932 39.1705 44.6932 38.3262V6.49046C44.6932 5.64612 44.3578 4.83637 43.7607 4.23933C43.1637 3.6423 42.354 3.30688 41.5096 3.30688H9.67391C8.82957 3.30688 8.01982 3.6423 7.42278 4.23933C6.82575 4.83637 6.49033 5.64612 6.49033 6.49046V35.1426L3.30676 44.6933Z" fill="#FACC15"/>
<path d="M28.3392 27.6197L18.7885 29.3389L20.3803 19.6608L35.4386 4.66618C35.7343 4.3674 36.0863 4.13022 36.4743 3.96836C36.8623 3.80649 37.2785 3.72314 37.6989 3.72314C38.1193 3.72314 38.5355 3.80649 38.9235 3.96836C39.3115 4.13022 39.6635 4.3674 39.9592 4.66618L43.3338 8.04076C43.6322 8.33672 43.869 8.68883 44.0307 9.07677C44.1923 9.46472 44.2755 9.88083 44.2755 10.3011C44.2755 10.7214 44.1923 11.1375 44.0307 11.5254C43.869 11.9134 43.6322 12.2655 43.3338 12.5614L28.3392 27.6197Z" fill="white"/>
<path d="M25.5918 3.30688H9.67391C8.82957 3.30688 8.01982 3.6423 7.42278 4.23933C6.82575 4.83637 6.49033 5.64612 6.49033 6.49046V35.1426L3.30676 44.6933L16.041 41.5097H41.5096C42.354 41.5097 43.1637 41.1743 43.7607 40.5773C44.3578 39.9803 44.6932 39.1705 44.6932 38.3262V22.4083" stroke="#F97316" stroke-width="3.43" stroke-linecap="round" stroke-linejoin="round"/>
<path d="M28.3392 27.6197L18.7885 29.3389L20.3803 19.6608L35.4386 4.66618C35.7343 4.3674 36.0863 4.13022 36.4743 3.96836C36.8623 3.80649 37.2785 3.72314 37.6989 3.72314C38.1193 3.72314 38.5355 3.80649 38.9235 3.96836C39.3115 4.13022 39.6635 4.3674 39.9592 4.66618L43.3338 8.04076C43.6322 8.33672 43.869 8.68883 44.0307 9.07677C44.1923 9.46472 44.2755 9.88083 44.2755 10.3011C44.2755 10.7214 44.1923 11.1375 44.0307 11.5254C43.869 11.9134 43.6322 12.2655 43.3338 12.5614L28.3392 27.6197Z" stroke="#F97316" stroke-width="3.43" stroke-linecap="round" stroke-linejoin="round"/>
</svg>
