<svg width="48" height="48" viewBox="0 0 48 48" fill="none" xmlns="http://www.w3.org/2000/svg">
<path d="M19.8275 27.7439C17.243 29.7666 13.591 32.8005 13.0853 35.4412H35.1094C39.3795 13.7544 34.2107 8.97861 30.1653 5.83232C26.9292 3.31528 18.741 2.76071 15.782 3.80947L17.5799 7.85471L12.9169 15.7653C11.9689 17.3737 12.2848 19.4273 13.6725 20.6763C14.9315 21.8094 16.7754 22.0072 18.2461 21.1668L24.4343 17.6307C25.4457 18.7544 26.0194 22.8983 19.8275 27.7439Z" fill="#FACC15"/>
<path d="M13.0853 35.4412C13.591 32.8005 17.243 29.7666 19.8275 27.7439C26.0194 22.8983 25.4457 18.7544 24.4343 17.6307L18.2461 21.1668C16.7754 22.0072 14.9315 21.8094 13.6725 20.6763C12.2848 19.4273 11.9689 17.3737 12.9169 15.7653L17.5799 7.85471L15.782 3.80947C18.741 2.76071 26.9292 3.31528 30.1653 5.83232C34.2107 8.97861 39.3795 13.7544 35.1094 35.4412" stroke="#F97316" stroke-width="3.43" stroke-linecap="round" stroke-linejoin="round"/>
<path d="M26.4615 14.3584C26.1031 15.9117 25.2284 16.9886 24.4512 17.6352" stroke="#F97316" stroke-width="3.43" stroke-linecap="round" stroke-linejoin="round"/>
<path d="M9.41917 37.5496C9.83896 36.2905 11.0175 35.4412 12.3449 35.4412H35.6551C36.9826 35.4412 38.1608 36.2905 38.5808 37.5496L40.9617 44.6929H7.03812L9.41917 37.5496Z" fill="#FACC15"/>
<path d="M9.41917 37.5496C9.83896 36.2905 11.0175 35.4412 12.3449 35.4412H35.6551C36.9826 35.4412 38.1608 36.2905 38.5808 37.5496L40.9617 44.6929H7.03812L9.41917 37.5496Z" stroke="#F97316" stroke-width="3.43" stroke-linecap="round" stroke-linejoin="round"/>
</svg>
