<svg width="48" height="48" viewBox="0 0 48 48" fill="none" xmlns="http://www.w3.org/2000/svg">
<path d="M44.6932 35.1424V9.67382C44.6932 9.25165 44.5255 8.84677 44.227 8.54825C43.9285 8.24974 43.5236 8.08203 43.1014 8.08203H4.89858C4.05493 8.08203 3.30679 8.83017 3.30679 9.67382V35.1424C3.30679 35.986 4.05493 36.7342 4.89858 36.7342H43.1014C43.9451 36.7342 44.6932 35.986 44.6932 35.1424Z" fill="#FACC15"/>
<path d="M17.6329 44.6931L20.8164 36.7341H27.1836L30.3671 44.6931H17.6329Z" fill="white"/>
<path d="M44.6932 35.1424V9.67382C44.6932 9.25165 44.5255 8.84677 44.227 8.54825C43.9285 8.24974 43.5236 8.08203 43.1014 8.08203H4.89858C4.05493 8.08203 3.30679 8.83017 3.30679 9.67382V35.1424C3.30679 35.986 4.05493 36.7342 4.89858 36.7342H43.1014C43.9451 36.7342 44.6932 35.986 44.6932 35.1424Z" stroke="#F97316" stroke-width="3.43" stroke-linecap="round" stroke-linejoin="round"/>
<path d="M20.8164 36.7341L17.6329 44.6931" stroke="#F97316" stroke-width="3.43" stroke-linecap="round" stroke-linejoin="round"/>
<path d="M27.1836 36.7341L30.3672 44.6931" stroke="#F97316" stroke-width="3.43" stroke-linecap="round" stroke-linejoin="round"/>
<path d="M14.4493 44.6931H33.5507" stroke="#F97316" stroke-width="3.43" stroke-linecap="round" stroke-linejoin="round"/>
<path d="M17.6329 17.6328L12.8575 22.4082L17.6329 27.1835" stroke="#F97316" stroke-width="3.43" stroke-linecap="round" stroke-linejoin="round"/>
<path d="M30.3672 17.6328L35.1425 22.4082L30.3672 27.1835" stroke="#F97316" stroke-width="3.43" stroke-linecap="round" stroke-linejoin="round"/>
</svg>
