<svg width="48" height="48" viewBox="0 0 48 48" fill="none" xmlns="http://www.w3.org/2000/svg">
<path d="M19.608 31.9062H5.5524C4.58207 31.9062 3.79547 32.6928 3.79547 33.6633V42.4479C3.79547 43.4183 4.58207 44.2049 5.5524 44.2049H19.608C20.5784 44.2049 21.365 43.4183 21.365 42.4479V33.6633C21.365 32.6928 20.5784 31.9062 19.608 31.9062Z" fill="#F97316"/>
<path d="M12.5802 31.9062H5.5524C5.08642 31.9062 4.63955 32.0914 4.31006 32.4209C3.98056 32.7504 3.79547 33.1973 3.79547 33.6633V42.4479C3.79547 42.9139 3.98056 43.3608 4.31006 43.6903C4.63955 44.0196 5.08642 44.2049 5.5524 44.2049H12.5802V31.9062Z" fill="#FACC15"/>
<path d="M28.3924 44.2049H42.4479C43.4183 44.2049 44.2049 43.4183 44.2049 42.4479V23.1216C44.2049 22.1512 43.4183 21.3646 42.4479 21.3646H28.3924C27.422 21.3646 26.6354 22.1512 26.6354 23.1216V42.4479C26.6354 43.4183 27.422 44.2049 28.3924 44.2049Z" fill="#F97316"/>
<path d="M35.4201 21.3646H28.3924C27.9265 21.3646 27.4795 21.5497 27.15 21.8792C26.8206 22.2087 26.6354 22.6556 26.6354 23.1216V42.4479C26.6354 42.9138 26.8206 43.3608 27.15 43.6903C27.4795 44.0196 27.9265 44.2049 28.3924 44.2049H35.4201V21.3646Z" fill="#FACC15"/>
<path d="M28.3924 16.0937H42.4479C43.4183 16.0937 44.2049 15.3071 44.2049 14.3368V5.55206C44.2049 4.58172 43.4183 3.7951 42.4479 3.7951H28.3924C27.422 3.7951 26.6354 4.58172 26.6354 5.55206V14.3368C26.6354 15.3071 27.422 16.0937 28.3924 16.0937Z" fill="#F97316"/>
<path d="M35.4201 3.7951H28.3924C27.9265 3.7951 27.4795 3.98022 27.15 4.30971C26.8206 4.6392 26.6354 5.08608 26.6354 5.55206V14.3368C26.6354 14.8028 26.8206 15.2496 27.15 15.5791C27.4795 15.9086 27.9265 16.0937 28.3924 16.0937H35.4201V3.7951Z" fill="#FACC15"/>
<path d="M19.608 3.7951H5.5524C4.58207 3.7951 3.79547 4.58172 3.79547 5.55206V24.8784C3.79547 25.8488 4.58207 26.6354 5.5524 26.6354H19.608C20.5784 26.6354 21.365 25.8488 21.365 24.8784V5.55206C21.365 4.58172 20.5784 3.7951 19.608 3.7951Z" fill="#F97316"/>
<path d="M12.5802 3.7951H5.5524C5.08642 3.7951 4.63955 3.98022 4.31006 4.30971C3.98056 4.6392 3.79547 5.08608 3.79547 5.55206V24.8784C3.79547 25.3444 3.98056 25.7913 4.31006 26.1208C4.63955 26.4503 5.08642 26.6354 5.5524 26.6354H12.5802V3.7951Z" fill="#FACC15"/>
<path d="M19.608 31.9062H5.5524C4.58207 31.9062 3.79547 32.6928 3.79547 33.6633V42.4479C3.79547 43.4183 4.58207 44.2049 5.5524 44.2049H19.608C20.5784 44.2049 21.365 43.4183 21.365 42.4479V33.6633C21.365 32.6928 20.5784 31.9062 19.608 31.9062Z" stroke="#191919" stroke-width="2" stroke-linecap="round" stroke-linejoin="round"/>
<path d="M28.3924 44.2049H42.4479C43.4183 44.2049 44.2049 43.4183 44.2049 42.4479V23.1216C44.2049 22.1512 43.4183 21.3646 42.4479 21.3646H28.3924C27.422 21.3646 26.6354 22.1512 26.6354 23.1216V42.4479C26.6354 43.4183 27.422 44.2049 28.3924 44.2049Z" stroke="#191919" stroke-width="2" stroke-linecap="round" stroke-linejoin="round"/>
<path d="M28.3924 16.0937H42.4479C43.4183 16.0937 44.2049 15.3071 44.2049 14.3368V5.55206C44.2049 4.58172 43.4183 3.7951 42.4479 3.7951H28.3924C27.422 3.7951 26.6354 4.58172 26.6354 5.55206V14.3368C26.6354 15.3071 27.422 16.0937 28.3924 16.0937Z" stroke="#191919" stroke-width="2" stroke-linecap="round" stroke-linejoin="round"/>
<path d="M19.608 3.7951H5.5524C4.58207 3.7951 3.79547 4.58172 3.79547 5.55206V24.8784C3.79547 25.8488 4.58207 26.6354 5.5524 26.6354H19.608C20.5784 26.6354 21.365 25.8488 21.365 24.8784V5.55206C21.365 4.58172 20.5784 3.7951 19.608 3.7951Z" stroke="#191919" stroke-width="2" stroke-linecap="round" stroke-linejoin="round"/>
</svg>
