<svg width="191" height="29" viewBox="0 0 191 29" fill="none" xmlns="http://www.w3.org/2000/svg">
<g clip-path="url(#clip0_27_88)">
<path d="M28.3127 14.7636C27.5346 12.9079 26.2312 11.3247 24.5654 10.2121C22.8997 9.09938 20.9455 8.50658 18.9474 8.50781H10.085C9.46339 8.50781 8.8672 8.75675 8.42756 9.19987C7.98791 9.643 7.74082 10.244 7.7406 10.8708C7.7406 11.4978 7.9876 12.099 8.42726 12.5423C8.86693 12.9856 9.46325 13.2347 10.085 13.2347H18.9441C20.3571 13.2928 21.6931 13.8996 22.6726 14.9282C23.652 15.9569 24.1989 17.3276 24.1989 18.7535C24.1989 20.1794 23.652 21.5501 22.6726 22.5787C21.6931 23.6074 20.3571 24.2142 18.9441 24.2723H5.51943C4.05944 24.2723 2.65893 23.6891 1.62448 22.6503C0.590026 21.6115 0.00590985 20.2018 1.65142e-06 18.7297V18.7506C-0.000759575 20.0968 0.261653 21.4299 0.772236 22.6738C1.28282 23.9176 2.03156 25.0478 2.97564 25.9997C3.91973 26.9516 5.04064 27.7066 6.27429 28.2214C7.50794 28.7362 8.83013 29.0008 10.1653 29H18.9441C20.6215 28.9992 22.2726 28.5801 23.7505 27.7801C25.2283 26.9801 26.487 25.824 27.4144 24.4147C28.3418 23.0054 28.9092 21.3868 29.0659 19.7029C29.2226 18.019 28.9639 16.3222 28.3127 14.7636Z" fill="url(#paint0_linear_27_88)"/>
<path d="M28.3126 7.074C27.5349 5.21719 26.2311 3.63296 24.5647 2.51962C22.8982 1.40628 20.9431 0.813303 18.944 0.814914H10.1652C7.81957 0.814902 5.54607 1.63268 3.73007 3.12964C1.91407 4.6266 0.667306 6.71064 0.201089 9.02852C-0.265127 11.3464 0.0778913 13.7555 1.172 15.8476C2.26612 17.9396 4.04401 19.5858 6.20434 20.5072C7.45621 21.042 8.80232 21.3163 10.1619 21.3138H19.2749C19.8964 21.3135 20.4924 21.0645 20.9319 20.6214C21.3713 20.1783 21.6183 19.5774 21.6185 18.9508C21.6185 18.324 21.3716 17.7228 20.9321 17.2796C20.4927 16.8363 19.8966 16.5871 19.2749 16.5869H10.1652C8.71257 16.5869 7.31941 16.0051 6.29223 14.9694C5.26505 13.9337 4.68799 12.529 4.68799 11.0643C4.68799 9.59966 5.26505 8.19497 6.29223 7.15929C7.31941 6.1236 8.71257 5.54176 10.1652 5.54176H23.5932C25.0534 5.54175 26.454 6.12524 27.4884 7.16442C28.5228 8.2036 29.1065 9.61376 29.1118 11.086V11.0643C29.1142 9.69358 28.8424 8.33642 28.3126 7.074Z" fill="url(#paint1_linear_27_88)"/>
<path d="M44.1885 8.10247C42.9228 8.10247 41.7815 8.3527 40.7645 8.85316C39.7476 9.35362 38.9451 10.0262 38.3572 10.8708V3.0303C38.3564 2.77936 38.2569 2.53899 38.0806 2.36186C37.9043 2.18472 37.6655 2.08526 37.4166 2.08527H33.4988C33.2496 2.08549 33.0107 2.18539 32.8345 2.36304C32.6583 2.54069 32.5592 2.78157 32.559 3.0328V26.441C32.5595 26.6911 32.6583 26.9309 32.8339 27.1076C33.0095 27.2843 33.2474 27.3835 33.4955 27.3835H37.42C37.6682 27.3838 37.9063 27.2846 38.0821 27.1079C38.2578 26.9311 38.3568 26.6913 38.3572 26.441V17.0248C38.3572 15.7459 38.6848 14.7544 39.34 14.0504C39.9952 13.3465 40.8776 12.9934 41.9872 12.9911C43.0952 12.9911 43.9776 13.3442 44.6344 14.0504C45.2913 14.7566 45.6191 15.7481 45.618 17.0248V26.441C45.6185 26.6903 45.7166 26.9292 45.8911 27.1058C46.0656 27.2824 46.3023 27.3822 46.5495 27.3835H50.4376C50.5606 27.3839 50.6825 27.3597 50.7963 27.3125C50.9101 27.2653 51.0136 27.196 51.1008 27.1085C51.188 27.0209 51.2572 26.9169 51.3045 26.8024C51.3518 26.6879 51.3763 26.5651 51.3765 26.441V16.2391C51.3765 13.7096 50.7211 11.7208 49.4101 10.2728C48.0992 8.8248 46.3587 8.10135 44.1885 8.10247Z" fill="#0F766E"/>
<path d="M68.7024 9.19596C67.2785 8.42191 65.6515 8.03461 63.8217 8.03406C61.9466 8.03406 60.2852 8.43276 58.8375 9.23016C57.4057 10.0132 56.2329 11.2021 55.4639 12.65C54.6615 14.1313 54.2603 15.8635 54.2603 17.8464C54.2603 19.8293 54.667 21.5615 55.4805 23.0429C56.2591 24.4896 57.4373 25.6776 58.8722 26.4627C60.3182 27.2612 61.9683 27.6602 63.8225 27.6596C65.3595 27.6596 66.7496 27.3746 67.9927 26.8046C70.0503 25.8879 71.6652 24.1882 72.4855 22.0761C72.5277 21.9625 72.542 21.8403 72.5272 21.7199C72.5123 21.5995 72.4688 21.4846 72.4002 21.3849C72.3317 21.2852 72.2402 21.2037 72.1336 21.1474C72.027 21.0912 71.9084 21.0618 71.7881 21.0619H67.536C67.288 21.0613 67.0433 21.1192 66.8214 21.2308C66.5996 21.3425 66.4066 21.5048 66.2579 21.705C65.664 22.5051 64.7832 22.9052 63.6157 22.9052C62.6439 22.9052 61.8247 22.5919 61.1579 21.9652C60.4911 21.3385 60.1125 20.4324 60.0221 19.2469H71.9982C72.3179 19.2472 72.6254 19.1231 72.8566 18.9004C73.0878 18.6777 73.2248 18.3736 73.2391 18.0516C73.2452 17.8781 73.2482 17.7068 73.2482 17.5378C73.2482 15.6238 72.847 13.9487 72.0445 12.5123C71.2706 11.1054 70.1101 9.95373 68.7024 9.19596ZM60.0585 15.9997C60.2157 14.9515 60.6293 14.1425 61.2994 13.5725C61.9694 13.0025 62.7887 12.7175 63.7571 12.7175C64.7747 12.7175 65.6223 13.0139 66.3001 13.6067C66.9779 14.1994 67.3171 14.9971 67.3176 15.9997H60.0585Z" fill="#0F766E"/>
<path d="M81.5248 2.35883H77.6136C77.3635 2.35883 77.1236 2.45901 76.9468 2.63733C76.7699 2.81565 76.6705 3.05751 76.6705 3.3097V26.7029C76.6705 26.956 76.7702 27.1987 76.9477 27.3776C77.1252 27.5566 77.3659 27.6571 77.6169 27.6571H81.5224C81.7732 27.6569 82.0137 27.5562 82.191 27.3773C82.3683 27.1984 82.4679 26.9558 82.4679 26.7029V3.3097C82.4679 3.05751 82.3686 2.81565 82.1917 2.63733C82.0148 2.45901 81.775 2.35883 81.5248 2.35883Z" fill="#0F766E"/>
<path d="M104.038 8.30765H100.127C99.8776 8.30831 99.6385 8.40881 99.4623 8.58709C99.2861 8.76536 99.1873 9.00685 99.1875 9.25852V18.6663C99.1875 19.9453 98.8596 20.9365 98.2039 21.6399C97.5482 22.3433 96.6553 22.6967 95.5252 22.7001C94.4173 22.7001 93.5349 22.3467 92.878 21.6399C92.2212 20.9331 91.8936 19.942 91.8953 18.6663V9.25852C91.8953 9.13358 91.8709 9.00987 91.8234 8.89445C91.776 8.77903 91.7064 8.67417 91.6188 8.58586C91.5311 8.49755 91.427 8.42753 91.3125 8.37979C91.198 8.33205 91.0753 8.30754 90.9514 8.30765H87.074C86.9502 8.30754 86.8275 8.33206 86.713 8.37981C86.5985 8.42755 86.4946 8.49759 86.407 8.58591C86.3194 8.67423 86.2499 8.7791 86.2025 8.89451C86.1552 9.00993 86.1309 9.13362 86.131 9.25852V19.4521C86.131 21.1158 86.4362 22.5616 87.0467 23.7894C87.6573 25.0172 88.5159 25.9575 89.6228 26.6103C90.7308 27.2604 92.008 27.5851 93.4546 27.5845C94.6126 27.5992 95.7574 27.3356 96.7942 26.8155C97.8002 26.3023 98.5971 25.6241 99.185 24.7811V26.4327C99.185 26.6848 99.2844 26.9267 99.4612 27.105C99.6381 27.2833 99.878 27.3835 100.128 27.3835H104.039C104.163 27.3835 104.286 27.3589 104.4 27.3111C104.515 27.2634 104.619 27.1933 104.706 27.105C104.794 27.0167 104.863 26.9119 104.911 26.7965C104.958 26.6812 104.982 26.5575 104.982 26.4327V9.25852C104.983 9.13355 104.958 9.00979 104.911 8.89432C104.863 8.77885 104.794 8.67394 104.706 8.58561C104.618 8.49728 104.514 8.42726 104.4 8.37957C104.285 8.33187 104.162 8.30743 104.038 8.30765Z" fill="#0F766E"/>
<path d="M118.778 22.4265H117.629C116.995 22.4265 116.544 22.3011 116.273 22.0503C116.002 21.7995 115.866 21.3894 115.866 20.82V13.1621H119.009C119.182 13.1621 119.348 13.093 119.47 12.9699C119.592 12.8467 119.66 12.6798 119.66 12.5057V8.96409C119.66 8.87788 119.643 8.79252 119.611 8.71288C119.578 8.63324 119.53 8.56087 119.47 8.49992C119.409 8.43896 119.337 8.39061 119.258 8.35762C119.179 8.32463 119.095 8.30765 119.009 8.30765H115.866V4.58756C115.865 4.34194 115.769 4.10644 115.596 3.93284C115.424 3.75923 115.19 3.66171 114.947 3.66171H110.987C110.866 3.6616 110.746 3.68547 110.635 3.73195C110.523 3.77843 110.422 3.84661 110.337 3.93259C110.251 4.01858 110.184 4.12068 110.137 4.23306C110.091 4.34545 110.068 4.46591 110.068 4.58756V8.30765H108.413C108.328 8.30765 108.243 8.32463 108.164 8.35762C108.085 8.39061 108.013 8.43896 107.953 8.49992C107.892 8.56087 107.844 8.63324 107.812 8.71288C107.779 8.79252 107.762 8.87788 107.762 8.96409V12.5057C107.762 12.6798 107.831 12.8467 107.953 12.9699C108.075 13.093 108.24 13.1621 108.413 13.1621H110.068V20.7524C110.068 23.0996 110.655 24.7917 111.83 25.8288C113.006 26.8658 114.644 27.3844 116.747 27.3844H118.778C118.898 27.3845 119.018 27.3606 119.129 27.314C119.241 27.2675 119.342 27.1993 119.428 27.1132C119.513 27.0271 119.581 26.9249 119.627 26.8124C119.673 26.7 119.697 26.5794 119.697 26.4577V23.3548C119.697 23.233 119.674 23.1122 119.627 22.9996C119.581 22.8869 119.514 22.7845 119.428 22.6982C119.343 22.612 119.242 22.5436 119.13 22.4969C119.018 22.4503 118.899 22.4264 118.778 22.4265Z" fill="#0F766E"/>
<path d="M128.292 0.905833C127.648 0.301944 126.828 0 125.833 0C124.817 0 123.987 0.301944 123.343 0.905833C122.7 1.50972 122.377 2.26764 122.375 3.17959C122.367 3.60151 122.45 4.02022 122.617 4.40715C122.784 4.79408 123.031 5.14012 123.343 5.42165C123.987 6.02665 124.818 6.32888 125.835 6.32832C126.828 6.32832 127.647 6.0261 128.294 5.42165C128.605 5.14034 128.852 4.79477 129.019 4.40846C129.185 4.02215 129.268 3.60416 129.26 3.18293C129.259 2.26931 128.936 1.51028 128.292 0.905833Z" fill="#0F766E"/>
<path d="M127.786 8.30765H123.847C123.334 8.30765 122.917 8.72739 122.917 9.24518V26.446C122.917 26.9638 123.334 27.3835 123.847 27.3835H127.786C128.299 27.3835 128.715 26.9638 128.715 26.446V9.24518C128.715 8.72739 128.299 8.30765 127.786 8.30765Z" fill="#0F766E"/>
<path d="M146.618 9.23016C145.126 8.43276 143.453 8.03406 141.6 8.03406C139.747 8.03406 138.073 8.43276 136.579 9.23016C135.103 10.0129 133.879 11.2049 133.053 12.6658C132.194 14.1589 131.765 15.8854 131.765 17.8456C131.765 19.8285 132.189 21.5607 133.036 23.042C133.853 24.4944 135.064 25.681 136.528 26.4618C138.009 27.2603 139.676 27.6593 141.53 27.6588C143.383 27.6582 145.061 27.2592 146.564 26.4618C148.049 25.6802 149.283 24.4886 150.121 23.0262C150.991 21.5337 151.426 19.8074 151.427 17.8472C151.428 15.8871 151.001 14.16 150.146 12.6658C149.319 11.2048 148.095 10.0127 146.618 9.23016ZM144.363 21.3663C143.584 22.1871 142.64 22.5975 141.532 22.5975C140.424 22.5975 139.503 22.1871 138.769 21.3663C138.033 20.5461 137.666 19.3725 137.666 17.8456C137.666 16.2958 138.039 15.1164 138.786 14.3073C139.532 13.4982 140.469 13.0937 141.598 13.0937C142.125 13.0847 142.647 13.1899 143.129 13.4021C143.612 13.6144 144.044 13.9288 144.395 14.324C145.152 15.1448 145.531 16.3186 145.531 17.8456C145.531 19.3725 145.142 20.5461 144.363 21.3663Z" fill="#0F766E"/>
<path d="M166.046 8.10245C164.803 8.10245 163.684 8.3474 162.689 8.83729C161.741 9.28835 160.923 9.9777 160.316 10.8391V9.25434C160.316 9.1305 160.291 9.00786 160.244 8.89346C160.197 8.77905 160.128 8.67511 160.042 8.58757C159.955 8.50004 159.851 8.43063 159.738 8.38331C159.624 8.336 159.503 8.3117 159.38 8.31181H155.453C155.33 8.3117 155.209 8.336 155.095 8.38331C154.982 8.43063 154.878 8.50004 154.791 8.58757C154.705 8.67511 154.636 8.77905 154.589 8.89346C154.542 9.00786 154.517 9.1305 154.517 9.25434V26.441C154.517 26.6912 154.616 26.9311 154.791 27.108C154.967 27.285 155.205 27.3843 155.453 27.3843H159.38C159.628 27.3843 159.866 27.285 160.042 27.108C160.217 26.9311 160.316 26.6912 160.316 26.441V17.0248C160.316 15.7459 160.643 14.7544 161.299 14.0504C161.955 13.3464 162.837 12.9933 163.946 12.9911C165.053 12.9911 165.936 13.3442 166.594 14.0504C167.252 14.7566 167.579 15.7481 167.577 17.0248V26.441C167.577 26.6907 167.676 26.9302 167.851 27.1069C168.026 27.2836 168.263 27.3831 168.511 27.3835H172.399C172.522 27.3836 172.644 27.3593 172.757 27.312C172.871 27.2647 172.974 27.1953 173.061 27.1078C173.148 27.0203 173.217 26.9163 173.264 26.8019C173.311 26.6875 173.336 26.5649 173.336 26.441V16.2391C173.336 13.7095 172.674 11.7208 171.35 10.2728C170.027 8.82478 168.259 8.10134 166.046 8.10245Z" fill="#0F766E"/>
<path d="M190.05 22.5633H182.795L189.955 14.0037C190.521 13.327 190.831 12.4701 190.83 11.5848V9.26603C190.831 9.14014 190.806 9.01547 190.758 8.89914C190.711 8.78282 190.641 8.67712 190.552 8.58811C190.464 8.49909 190.359 8.4285 190.244 8.38038C190.128 8.33225 190.005 8.30754 189.88 8.30765H177.338C177.213 8.30754 177.089 8.33225 176.974 8.38036C176.859 8.42848 176.754 8.49905 176.665 8.58806C176.577 8.67706 176.507 8.78275 176.459 8.89908C176.411 9.01541 176.387 9.1401 176.387 9.26603V12.1695C176.387 12.4238 176.487 12.6676 176.666 12.8473C176.844 13.027 177.086 13.1279 177.338 13.1279H184.185L177.169 21.6958C176.62 22.3675 176.319 23.2108 176.319 24.0813V26.4251C176.319 26.6793 176.419 26.9231 176.597 27.1028C176.775 27.2825 177.017 27.3835 177.269 27.3835H190.05C190.174 27.3836 190.298 27.3589 190.413 27.3108C190.529 27.2627 190.634 27.1921 190.722 27.1031C190.81 27.014 190.88 26.9084 190.928 26.792C190.976 26.6757 191 26.551 191 26.4251V23.5216C191 23.3958 190.976 23.2711 190.928 23.1548C190.88 23.0384 190.81 22.9327 190.722 22.8437C190.634 22.7547 190.529 22.6841 190.413 22.636C190.298 22.5879 190.174 22.5631 190.05 22.5633Z" fill="#0F766E"/>
</g>
<defs>
<linearGradient id="paint0_linear_27_88" x1="1.65142e-06" y1="18.7506" x2="29.1118" y2="18.7506" gradientUnits="userSpaceOnUse">
<stop stop-color="#F97316"/>
<stop offset="1" stop-color="#FACC15"/>
</linearGradient>
<linearGradient id="paint1_linear_27_88" x1="-4.79532e-05" y1="11.0643" x2="29.1118" y2="11.0643" gradientUnits="userSpaceOnUse">
<stop stop-color="#0F766E"/>
<stop offset="1" stop-color="#10B981"/>
</linearGradient>
<clipPath id="clip0_27_88">
<rect width="191" height="29" fill="white"/>
</clipPath>
</defs>
</svg>
