<svg width="48" height="48" viewBox="0 0 48 48" fill="none" xmlns="http://www.w3.org/2000/svg">
<g clip-path="url(#clip0_16_426)">
<path d="M40.2917 23.0416V3.87498C40.2917 3.36665 40.0897 2.87914 39.7303 2.51969C39.3709 2.16025 38.8833 1.95831 38.375 1.95831H3.87501C3.36668 1.95831 2.87917 2.16025 2.51972 2.51969C2.16028 2.87914 1.95834 3.36665 1.95834 3.87498V23.0416H40.2917Z" fill="#F97316"/>
<path d="M32.625 1.95831H3.87501C3.36668 1.95831 2.87917 2.16025 2.51972 2.51969C2.16028 2.87914 1.95834 3.36665 1.95834 3.87498V23.0416H11.5417L32.625 1.95831Z" fill="#FACC15"/>
<path d="M1.95834 23.0417V26.875C1.95834 27.3834 2.16028 27.8709 2.51972 28.2303C2.87917 28.5898 3.36668 28.7917 3.87501 28.7917H38.375C38.8833 28.7917 39.3709 28.5898 39.7303 28.2303C40.0897 27.8709 40.2917 27.3834 40.2917 26.875V23.0417H1.95834Z" fill="white"/>
<path d="M26.875 34.5417C26.4974 34.5417 26.1236 34.4673 25.7748 34.3228C25.426 34.1784 25.109 33.9666 24.8421 33.6996C24.5751 33.4327 24.3633 33.1157 24.2188 32.7669C24.0744 32.4181 24 32.0442 24 31.6667V28.7917H17.2917V31.6667C17.2917 32.0442 17.2173 32.4181 17.0728 32.7669C16.9283 33.1157 16.7166 33.4327 16.4496 33.6996C16.1826 33.9666 15.8657 34.1784 15.5169 34.3228C15.1681 34.4673 14.7942 34.5417 14.4167 34.5417H26.875Z" fill="#FACC15"/>
<path d="M11.5417 34.5417H23.0417M1.95834 23.0417H34.5417M17.2917 28.7917V31.6667C17.2917 32.0442 17.2173 32.4181 17.0728 32.7669C16.9283 33.1157 16.7166 33.4327 16.4496 33.6996C16.1826 33.9666 15.8657 34.1784 15.5169 34.3228C15.1681 34.4673 14.7942 34.5417 14.4167 34.5417" stroke="#191919" stroke-width="2" stroke-linecap="round" stroke-linejoin="round"/>
<path d="M28.7917 28.7916H3.87501C3.36668 28.7916 2.87917 28.5897 2.51972 28.2303C2.16028 27.8708 1.95834 27.3833 1.95834 26.875V3.87498C1.95834 3.36665 2.16028 2.87914 2.51972 2.51969C2.87917 2.16025 3.36668 1.95831 3.87501 1.95831H38.375C38.8833 1.95831 39.3709 2.16025 39.7303 2.51969C40.0897 2.87914 40.2917 3.36665 40.2917 3.87498V19.2083" stroke="#191919" stroke-width="2" stroke-linecap="round" stroke-linejoin="round"/>
<path d="M37.3764 25.955L25.3417 37.9917L31.0917 43.7417L43.1283 31.705L37.3764 25.955Z" fill="#FACC15" stroke="#191919" stroke-width="2" stroke-linecap="round" stroke-linejoin="round"/>
<path d="M23.0417 46.0416L31.0917 43.7416L25.3417 37.9916L23.0417 46.0416Z" fill="#F97316" stroke="#191919" stroke-width="2" stroke-linecap="round" stroke-linejoin="round"/>
<path d="M44.8514 24.2319C44.0887 23.4697 43.0546 23.0416 41.9764 23.0416C40.8982 23.0416 39.8641 23.4697 39.1014 24.2319L37.3764 25.9569L43.1264 31.7069L44.8514 29.9819C45.6136 29.2192 46.0417 28.1851 46.0417 27.1069C46.0417 26.0287 45.6136 24.9946 44.8514 24.2319Z" fill="#F97316" stroke="#191919" stroke-width="2" stroke-linecap="round" stroke-linejoin="round"/>
</g>
<defs>
<clipPath id="clip0_16_426">
<rect width="48" height="48" fill="white"/>
</clipPath>
</defs>
</svg>
