<svg width="48" height="48" viewBox="0 0 48 48" fill="none" xmlns="http://www.w3.org/2000/svg">
<path d="M22.4401 43.3244C20.7897 44.387 18.8253 44.8528 16.8735 44.6446C14.9217 44.4361 13.1001 43.5657 11.7114 42.1783L10.5017 40.9685C9.9651 40.4264 9.66412 39.6941 9.66412 38.931C9.66412 38.1683 9.9651 37.436 10.5017 36.8936L15.5954 31.8318C16.1323 31.2972 16.8592 30.997 17.6169 30.997C18.3747 30.997 19.1016 31.2972 19.6385 31.8318C20.1809 32.3684 20.913 32.6693 21.676 32.6693C22.439 32.6693 23.1711 32.3684 23.7135 31.8318L31.8316 23.7137C32.3682 23.1713 32.6692 22.4392 32.6692 21.6762C32.6692 20.9132 32.3682 20.1811 31.8316 19.6387C31.297 19.1017 30.9968 18.3748 30.9968 17.6171C30.9968 16.8594 31.297 16.1325 31.8316 15.5956L36.7343 10.5018C37.2768 9.96528 38.009 9.66431 38.7718 9.66431C39.5349 9.66431 40.2668 9.96528 40.8093 10.5018L42.019 11.7116C43.4312 13.0807 44.3312 14.8926 44.5687 16.8451C44.8062 18.7976 44.3669 20.7725 43.3243 22.4402C37.7731 30.6818 30.6816 37.7732 22.4401 43.3244Z" fill="#FACC15"/>
<path d="M22.4401 43.3244C20.7897 44.387 18.8253 44.8528 16.8735 44.6446C14.9217 44.4361 13.1001 43.5657 11.7114 42.1783L10.5017 40.9685C9.96507 40.4264 9.66412 39.6941 9.66412 38.931C9.66412 38.1683 9.96507 37.436 10.5017 36.8936L15.5954 31.8318C16.1323 31.2972 16.8592 30.997 17.6169 30.997C18.3747 30.997 19.1015 31.2972 19.6385 31.8318C20.1809 32.3684 20.9131 32.6693 21.676 32.6693C22.4389 32.6693 23.1711 32.3684 23.7135 31.8318L31.8316 23.7137C32.3682 23.1713 32.6691 22.4392 32.6691 21.6762C32.6691 20.9132 32.3682 20.1811 31.8316 19.6387C31.297 19.1017 30.9968 18.3748 30.9968 17.6171C30.9968 16.8594 31.297 16.1325 31.8316 15.5956L36.7343 10.5018C37.2768 9.96528 38.0087 9.66431 38.7718 9.66431C39.5349 9.66431 40.2668 9.96528 40.8093 10.5018L42.019 11.7116C43.4312 13.0807 44.3312 14.8926 44.5687 16.8451C44.8062 18.7976 44.3669 20.7725 43.3243 22.4402C37.7731 30.6818 30.6816 37.7732 22.4401 43.3244Z" stroke="#F97316" stroke-width="3.43" stroke-linecap="round" stroke-linejoin="round"/>
<path d="M24 3.30688C21.2825 3.30688 18.5916 3.84213 16.081 4.88206C13.5704 5.922 11.2892 7.44626 9.36768 9.3678C7.44611 11.2893 5.92188 13.5705 4.88194 16.0812C3.84201 18.5918 3.30676 21.2826 3.30676 24.0001" stroke="#F97316" stroke-width="3.43" stroke-linecap="round" stroke-linejoin="round"/>
<path d="M24 11.2659C20.6226 11.2659 17.3836 12.6075 14.9955 14.9956C12.6073 17.3838 11.2657 20.6228 11.2657 24.0002" stroke="#F97316" stroke-width="3.43" stroke-linecap="round" stroke-linejoin="round"/>
</svg>
