<svg width="48" height="48" viewBox="0 0 48 48" fill="none" xmlns="http://www.w3.org/2000/svg">
<path d="M46.0417 16.3333V37.4166C46.0417 38.4333 45.6378 39.4083 44.9189 40.1272C44.2 40.8461 43.225 41.25 42.2083 41.25H5.79167C4.775 41.25 3.79998 40.8461 3.08109 40.1272C2.3622 39.4083 1.95833 38.4333 1.95833 37.4166V16.3333H46.0417Z" fill="#F97316"/>
<path d="M5.79167 41.25H11.5417L36.4583 16.3333H1.95833V37.4166C1.95833 38.4333 2.3622 39.4083 3.08109 40.1272C3.79998 40.8461 4.775 41.25 5.79167 41.25Z" fill="#FACC15"/>
<path d="M46.0417 16.3333H1.95833V10.5833C1.95833 9.56667 2.3622 8.59165 3.08109 7.87276C3.79998 7.15387 4.775 6.75 5.79167 6.75H42.2083C43.225 6.75 44.2 7.15387 44.9189 7.87276C45.6378 8.59165 46.0417 9.56667 46.0417 10.5833V16.3333Z" fill="white"/>
<path d="M42.2083 6.75H5.79167C4.775 6.75 3.79998 7.15387 3.08109 7.87276C2.3622 8.59165 1.95833 9.56667 1.95833 10.5833V37.4167C1.95833 38.4333 2.3622 39.4084 3.08109 40.1272C3.79998 40.8461 4.775 41.25 5.79167 41.25H42.2083C43.225 41.25 44.2 40.8461 44.9189 40.1272C45.6378 39.4084 46.0417 38.4333 46.0417 37.4167V10.5833C46.0417 9.56667 45.6378 8.59165 44.9189 7.87276C44.2 7.15387 43.225 6.75 42.2083 6.75Z" stroke="#191919" stroke-width="2" stroke-linecap="round" stroke-linejoin="round"/>
<path d="M1.95833 16.3333H46.0417" stroke="#191919" stroke-width="2" stroke-linecap="round" stroke-linejoin="round"/>
<path d="M8.66667 12.0208C8.53958 12.0208 8.41771 11.9703 8.32784 11.8805C8.23798 11.7906 8.1875 11.6687 8.1875 11.5417C8.1875 11.4146 8.23798 11.2927 8.32784 11.2028C8.41771 11.113 8.53958 11.0625 8.66667 11.0625" stroke="#191919" stroke-width="2"/>
<path d="M8.66667 12.0208C8.79375 12.0208 8.91563 11.9703 9.00549 11.8805C9.09535 11.7906 9.14583 11.6687 9.14583 11.5417C9.14583 11.4146 9.09535 11.2927 9.00549 11.2028C8.91563 11.113 8.79375 11.0625 8.66667 11.0625" stroke="#191919" stroke-width="2"/>
<path d="M31.1875 24L36.9375 29.75L31.1875 35.5" stroke="#191919" stroke-width="2" stroke-linecap="round" stroke-linejoin="round"/>
<path d="M16.8125 24L11.0625 29.75L16.8125 35.5" stroke="#191919" stroke-width="2" stroke-linecap="round" stroke-linejoin="round"/>
<path d="M26.875 24L21.125 35.5" stroke="#191919" stroke-width="2" stroke-linecap="round" stroke-linejoin="round"/>
<path d="M14.4167 12.0208C14.2896 12.0208 14.1677 11.9703 14.0778 11.8805C13.988 11.7906 13.9375 11.6687 13.9375 11.5417C13.9375 11.4146 13.988 11.2927 14.0778 11.2028C14.1677 11.113 14.2896 11.0625 14.4167 11.0625" stroke="#191919" stroke-width="2"/>
<path d="M14.4167 12.0208C14.5437 12.0208 14.6656 11.9703 14.7555 11.8805C14.8453 11.7906 14.8958 11.6687 14.8958 11.5417C14.8958 11.4146 14.8453 11.2927 14.7555 11.2028C14.6656 11.113 14.5437 11.0625 14.4167 11.0625" stroke="#191919" stroke-width="2"/>
<path d="M20.1667 12.0208C20.0396 12.0208 19.9177 11.9703 19.8278 11.8805C19.738 11.7906 19.6875 11.6687 19.6875 11.5417C19.6875 11.4146 19.738 11.2927 19.8278 11.2028C19.9177 11.113 20.0396 11.0625 20.1667 11.0625" stroke="#191919" stroke-width="2"/>
<path d="M20.1667 12.0208C20.2937 12.0208 20.4156 11.9703 20.5055 11.8805C20.5954 11.7906 20.6458 11.6687 20.6458 11.5417C20.6458 11.4146 20.5954 11.2927 20.5055 11.2028C20.4156 11.113 20.2937 11.0625 20.1667 11.0625" stroke="#191919" stroke-width="2"/>
</svg>
