<svg width="48" height="48" viewBox="0 0 48 48" fill="none" xmlns="http://www.w3.org/2000/svg">
<path d="M32.5638 28.1069C36.7343 34.2193 33.5507 39.9179 28.648 44.6932L22.2808 34.1238" fill="white"/>
<path d="M19.8932 15.4364C13.7807 11.266 8.08215 14.4495 3.30679 19.3522L13.8763 25.7194" fill="white"/>
<path d="M19.8932 15.4364C13.7807 11.266 8.08215 14.4495 3.30679 19.3522L13.8763 25.7194" stroke="#F97316" stroke-width="3.43" stroke-linecap="round" stroke-linejoin="round"/>
<path d="M32.5638 28.1069C36.7343 34.2193 33.5507 39.9179 28.648 44.6932L22.2808 34.1238" stroke="#F97316" stroke-width="3.43" stroke-linecap="round" stroke-linejoin="round"/>
<path d="M43.4198 4.58021C43.4198 4.58021 47.8131 14.9586 40.2362 22.5355C38.0956 24.754 34.3969 27.0794 30.3033 29.4755L18.5209 17.6931C20.9154 13.6044 23.2492 9.90129 25.4645 7.76378C33.0414 0.186882 43.4198 4.58021 43.4198 4.58021Z" fill="#FACC15"/>
<path fill-rule="evenodd" clip-rule="evenodd" d="M22.3127 34.1234L13.8763 25.6869C14.8038 24.1336 15.7279 22.5276 16.6455 20.933C19.6962 15.6313 22.6744 10.4556 25.4645 7.76337C23.2493 9.90088 20.9154 13.604 18.5209 17.6927L30.3033 29.4751C29.2907 30.0678 28.254 30.6648 27.2106 31.2656C25.5714 32.2096 23.916 33.1629 22.3127 34.1234Z" fill="white"/>
<path d="M13.8763 25.6873L22.3127 34.1238C29.0619 30.0806 36.7343 26.1648 40.2362 22.5355C47.8131 14.9586 43.4198 4.58021 43.4198 4.58021C43.4198 4.58021 33.0414 0.186882 25.4645 7.76378C21.8352 11.2657 17.8876 18.9699 13.8763 25.6873Z" stroke="#F97316" stroke-width="3.43" stroke-linecap="round" stroke-linejoin="round"/>
<path d="M18.5243 17.6968L30.3035 29.476" stroke="#F97316" stroke-width="3.43" stroke-linecap="round" stroke-linejoin="round"/>
<path d="M35.1425 14.4494C36.0215 14.4494 36.7343 13.7368 36.7343 12.8577C36.7343 11.9785 36.0215 11.2659 35.1425 11.2659C34.2635 11.2659 33.5507 11.9785 33.5507 12.8577C33.5507 13.7368 34.2635 14.4494 35.1425 14.4494Z" stroke="#F97316" stroke-width="3.43" stroke-linecap="round" stroke-linejoin="round"/>
<path d="M13.4306 41.3185C11.5841 43.1013 3.30679 44.6931 3.30679 44.6931C3.30679 44.6931 4.89858 36.4158 6.68138 34.5693C7.11855 34.1004 7.64575 33.7241 8.23152 33.463C8.8173 33.202 9.44965 33.0616 10.0908 33.0503C10.732 33.039 11.3689 33.157 11.9636 33.3971C12.5582 33.6372 13.0983 33.9947 13.5518 34.4483C14.0052 34.9017 14.3627 35.4419 14.6029 36.0366C14.8431 36.631 14.961 37.268 14.9497 37.9092C14.9384 38.5504 14.7981 39.1826 14.537 39.7684C14.276 40.3542 13.8997 40.8814 13.4306 41.3185Z" fill="#FACC15"/>
<path d="M13.4306 41.3185C11.5841 43.1013 3.30679 44.6931 3.30679 44.6931C3.30679 44.6931 4.89858 36.4158 6.68138 34.5693C7.11855 34.1004 7.64575 33.7241 8.23152 33.463C8.8173 33.202 9.44965 33.0616 10.0908 33.0503C10.732 33.039 11.3689 33.157 11.9636 33.3971C12.5582 33.6372 13.0983 33.9947 13.5518 34.4483C14.0052 34.9017 14.3627 35.4419 14.6029 36.0366C14.8431 36.631 14.961 37.268 14.9497 37.9092C14.9384 38.5504 14.7981 39.1826 14.537 39.7684C14.276 40.3542 13.8997 40.8814 13.4306 41.3185Z" stroke="#F97316" stroke-width="3.43" stroke-linecap="round" stroke-linejoin="round"/>
</svg>
